# xmcd CD database file
#
# Track frame offsets:
#	202
#	12490
#	24383
#	38574
#	48663
#	62392
#	76433
#	85829
#	101844
#	118307
#	128097
#	141552
#	158465
#	171386
#	180056
#
# Disc length: 2545 seconds
#
# Revision: 0
# Processed by: cddbd v1.5.1PL0 Copyright (c) Steve Scherf et al.
# Submitted via: CDex 1.51
#
DISCID=be09ef0f
DTITLE=Die Experten - Jede Menge Kohle
DYEAR=1997
DGENRE=Deut.-Punk
TTITLE0=Fette Jahre
TTITLE1=Reich und gemein
TTITLE2=Party
TTITLE3=Die eigene Bahn
TTITLE4=Kinderlied
TTITLE5=Die Wahl der Waffen
TTITLE6=Wird alles schön
TTITLE7=Breit
TTITLE8=Die Welt ist schlecht
TTITLE9=Ich will hier raus
TTITLE10=Damenbesuch
TTITLE11=Ich brauche dich
TTITLE12=Es geht immer weiter
TTITLE13=alle platt
TTITLE14=Alles oder nichts
EXTD=YEAR: 1997
EXTT0=
EXTT1=
EXTT2=
EXTT3=
EXTT4=
EXTT5=
EXTT6=
EXTT7=
EXTT8=
EXTT9=
EXTT10=
EXTT11=
EXTT12=
EXTT13=
EXTT14=
PLAYORDER=
